<?xml version="1.0" encoding="UTF-8" standalone="no"?>
<!-- Created with Inkscape (http://www.inkscape.org/) -->

<svg
   xmlns:dc="http://purl.org/dc/elements/1.1/"
   xmlns:cc="http://creativecommons.org/ns#"
   xmlns:rdf="http://www.w3.org/1999/02/22-rdf-syntax-ns#"
   xmlns:svg="http://www.w3.org/2000/svg"
   xmlns="http://www.w3.org/2000/svg"
   xmlns:sodipodi="http://sodipodi.sourceforge.net/DTD/sodipodi-0.dtd"
   xmlns:inkscape="http://www.inkscape.org/namespaces/inkscape"
   width="744.09448819"
   height="1052.3622047"
   id="svg2"
   version="1.1"
   inkscape:version="0.48.2 r9819"
   inkscape:export-filename="D:\Documents and Settings\mmosca\Desktop\elephant_32.png"
   inkscape:export-xdpi="11.958042"
   inkscape:export-ydpi="11.958042"
   sodipodi:docname="New document 1">
  <defs
     id="defs4" />
  <sodipodi:namedview
     id="base"
     pagecolor="#ffffff"
     bordercolor="#666666"
     borderopacity="1.0"
     inkscape:pageopacity="0.0"
     inkscape:pageshadow="2"
     inkscape:zoom="0.94942529"
     inkscape:cx="372.85714"
     inkscape:cy="544.28571"
     inkscape:document-units="px"
     inkscape:current-layer="layer1"
     showgrid="true"
     showguides="true"
     inkscape:window-width="705"
     inkscape:window-height="666"
     inkscape:window-x="22"
     inkscape:window-y="29"
     inkscape:window-maximized="0">
    <inkscape:grid
       type="xygrid"
       id="grid2985" />
  </sodipodi:namedview>
  <metadata
     id="metadata7">
    <rdf:RDF>
      <cc:Work
         rdf:about="">
        <dc:format>image/svg+xml</dc:format>
        <dc:type
           rdf:resource="http://purl.org/dc/dcmitype/StillImage" />
        <dc:title></dc:title>
      </cc:Work>
    </rdf:RDF>
  </metadata>
  <g
     inkscape:label="Layer 1"
     inkscape:groupmode="layer"
     id="layer1">
    <g
       id="g3845"
       inkscape:export-filename="C:\RailsInstaller\liquidlog\app\assets\images\elephant_32.png"
       inkscape:export-xdpi="14.187192"
       inkscape:export-ydpi="14.187192"
       style="fill:#1d1d1f;fill-opacity:1">
      <path
         id="path3793"
         d="M 405 382.375 C 396.71573 382.375 390 389.09073 390 397.375 C 390 401.46944 391.65294 405.1683 394.3125 407.875 C 388.62618 412.45756 385 419.50342 385 427.375 C 385 441.18212 396.19288 452.375 410 452.375 C 423.80712 452.375 435 441.18212 435 427.375 C 435 416.55311 428.12154 407.32299 418.5 403.84375 C 419.44794 401.87646 420 399.70495 420 397.375 C 420 389.09073 413.28427 382.375 405 382.375 z "
         style="fill:#1d1d1f;fill-opacity:1;fill-rule:nonzero;stroke:#ffffff;stroke-opacity:1;stroke-width:3;stroke-miterlimit:4;stroke-dasharray:none" />
      <path
         id="path3783"
         d="M 335 382.375 C 326.71573 382.375 320 389.09073 320 397.375 C 320 399.70495 320.55206 401.87646 321.5 403.84375 C 311.87846 407.32299 305 416.55311 305 427.375 C 305 441.18212 316.19288 452.375 330 452.375 C 343.80712 452.375 355 441.18212 355 427.375 C 355 419.50342 351.37382 412.45756 345.6875 407.875 C 348.34706 405.1683 350 401.46944 350 397.375 C 350 389.09073 343.28427 382.375 335 382.375 z "
         style="fill:#1d1d1f;fill-opacity:1;fill-rule:nonzero;stroke:#ffffff;stroke-opacity:1;stroke-width:3;stroke-miterlimit:4;stroke-dasharray:none" />
      <path
         transform="translate(-15,-20)"
         d="m 420,447.36218 a 35,35 0 1 1 -70,0 35,35 0 1 1 70,0 z"
         sodipodi:ry="35"
         sodipodi:rx="35"
         sodipodi:cy="447.36218"
         sodipodi:cx="385"
         id="path3781"
         style="fill:#1d1d1f;fill-opacity:1;fill-rule:nonzero;stroke:#ffffff;stroke-width:3;stroke-linecap:round;stroke-linejoin:round;stroke-miterlimit:4;stroke-opacity:1;stroke-dasharray:none"
         sodipodi:type="arc" />
      <path
         inkscape:connector-curvature="0"
         id="path3759"
         d="m 410,542.36218 c -16.56855,0 -30,17.90861 -30,40 l 60,0 c 0,-22.09139 -13.43145,-40 -30,-40 z"
         style="fill:#1d1d1f;fill-opacity:1;fill-rule:nonzero;stroke:#ffffff;stroke-width:3;stroke-linecap:round;stroke-linejoin:round;stroke-miterlimit:4;stroke-opacity:1;stroke-dasharray:none" />
      <path
         style="fill:#1d1d1f;fill-opacity:1;fill-rule:nonzero;stroke:#ffffff;stroke-width:3;stroke-linecap:round;stroke-linejoin:round;stroke-miterlimit:4;stroke-opacity:1;stroke-dasharray:none"
         d="m 330,542.36218 c -16.56855,0 -30,17.90861 -30,40 l 60,0 c 0,-22.09139 -13.43145,-40 -30,-40 z"
         id="path3777"
         inkscape:connector-curvature="0" />
      <path
         d="m 440,502.36218 a 70,70 0 1 1 -140,0 70,70 0 1 1 140,0 z"
         sodipodi:ry="70"
         sodipodi:rx="70"
         sodipodi:cy="502.36218"
         sodipodi:cx="370"
         id="path2987"
         style="fill:#1d1d1f;fill-opacity:1;fill-rule:nonzero;stroke:#ffffff;stroke-width:3;stroke-linecap:round;stroke-linejoin:round;stroke-miterlimit:4;stroke-opacity:1;stroke-dasharray:none"
         sodipodi:type="arc" />
      <path
         sodipodi:nodetypes="czc"
         inkscape:connector-curvature="0"
         id="path3779"
         d="m 370,522.36218 c 0,0 10,0 0,20 -10,20 0,20 0,20"
         style="fill:#1d1d1f;stroke:#ffffff;stroke-width:3;stroke-linecap:round;stroke-linejoin:round;stroke-miterlimit:4;stroke-opacity:1;stroke-dasharray:none;fill-opacity:1" />
    </g>
  </g>
</svg>
